<svg width="120" height="120" viewBox="0 0 120 120" fill="none" xmlns="http://www.w3.org/2000/svg">
  <defs>
    <radialGradient id="starGradient" cx="50%" cy="50%" r="50%">
      <stop offset="0%" stop-color="#FFD6FF"/>
      <stop offset="45%" stop-color="#D77BFF"/>
      <stop offset="100%" stop-color="#9B5CFF"/>
    </radialGradient>

    <filter id="glow" x="-60%" y="-60%" width="220%" height="220%">
      <feGaussianBlur stdDeviation="6" result="blur"/>
      <feMerge>
        <feMergeNode in="blur"/>
        <feMergeNode in="SourceGraphic"/>
      </feMerge>
    </filter>
  </defs>

  <path
    d="M60 8
       C66 42 78 54 112 60
       C78 66 66 78 60 112
       C54 78 42 66 8 60
       C42 54 54 42 60 8Z"
    fill="url(#starGradient)"
    filter="url(#glow)"
  />

  <path
    d="M60 28
       L72 48
       L92 36
       L80 56
       L112 60
       L80 64
       L92 84
       L72 72
       L60 92
       L48 72
       L28 84
       L40 64
       L8 60
       L40 56
       L28 36
       L48 48Z"
    fill="#C77DFF"
    opacity="0.45"
  />
</svg>